<?xml version="1.0" standalone="no"?>
<!DOCTYPE svg PUBLIC "-//W3C//DTD SVG 20010904//EN"
 "http://www.w3.org/TR/2001/REC-SVG-20010904/DTD/svg10.dtd">
<svg version="1.0" xmlns="http://www.w3.org/2000/svg"
 width="140.000000pt" height="174.000000pt" viewBox="0 0 140.000000 174.000000"
 preserveAspectRatio="xMidYMid meet">
<g transform="translate(0.000000,174.000000) scale(0.100000,-0.100000)"
fill="#15b800" stroke="none">
<path d="M232 1610 c-21 -20 -22 -28 -22 -215 0 -188 1 -195 20 -195 19 0 20
7 20 183 0 129 4 187 12 195 17 17 969 17 986 0 14 -14 17 -524 3 -546 -6 -10
-48 -13 -181 -13 l-172 1 -68 -65 c-36 -36 -70 -65 -75 -65 -5 0 -39 29 -76
65 l-67 65 -170 -1 c-94 0 -176 2 -181 6 -6 3 -11 31 -11 61 0 47 -2 54 -20
54 -18 0 -20 -7 -20 -60 0 -52 4 -65 26 -87 25 -25 27 -25 145 -21 65 2 119 1
119 -4 0 -4 -13 -14 -30 -23 -16 -8 -38 -25 -49 -36 -19 -21 -20 -37 -20 -367
0 -379 -1 -372 63 -411 77 -48 228 -77 348 -67 134 11 267 67 288 120 5 13 8
177 8 364 l1 341 -27 27 c-15 14 -37 30 -49 35 -49 18 -18 25 96 21 118 -4
120 -4 145 21 l26 26 0 284 c0 271 -1 284 -20 305 l-21 22 -503 0 c-492 0
-503 0 -524 -20z m443 -710 c34 -35 68 -60 80 -60 12 0 46 25 80 60 65 65 67
66 152 28 40 -18 83 -59 83 -81 0 -5 -18 -27 -40 -47 -22 -20 -40 -42 -40 -48
0 -17 32 -15 59 5 l24 16 -5 -47 c-4 -29 -13 -53 -24 -62 -66 -51 -156 -74
-295 -74 -139 0 -250 32 -291 84 -16 19 -26 86 -13 86 3 0 28 -11 55 -25 66
-34 217 -59 300 -51 78 8 140 24 140 35 0 23 -28 28 -103 18 -180 -24 -397 38
-397 113 0 33 104 99 170 109 3 1 32 -26 65 -59z m-190 -301 c53 -32 178 -58
270 -58 92 0 217 26 270 58 43 25 45 25 45 6 0 -27 -55 -66 -125 -88 -101 -32
-291 -31 -388 2 -66 22 -133 73 -121 92 7 12 8 12 49 -12z m576 -151 c-7 -19
-30 -36 -78 -59 -65 -31 -75 -33 -210 -37 -109 -3 -143 -8 -143 -18 0 -7 4
-15 9 -19 17 -10 156 -12 225 -3 74 10 176 44 176 59 0 5 7 9 15 9 22 0 18
-24 -7 -47 -86 -78 -293 -106 -455 -62 -76 21 -139 56 -150 85 -10 26 3 25 51
-2 25 -14 53 -23 61 -20 28 10 15 35 -28 54 -59 26 -87 58 -87 99 0 39 5 40
61 9 59 -33 146 -50 254 -50 109 0 182 15 255 52 l55 28 3 -26 c2 -14 -1 -38
-7 -52z m5 -224 c-18 -71 -170 -120 -344 -111 -176 8 -282 59 -282 134 0 38
11 41 47 14 44 -35 160 -54 301 -48 132 5 203 21 252 60 25 19 25 19 28 -3 2
-12 1 -33 -2 -46z"/>
<path d="M479 1483 c-6 -15 -15 -39 -19 -53 -5 -14 -30 -79 -55 -145 -52 -132
-59 -168 -34 -173 11 -2 21 11 33 43 l18 45 89 0 c89 0 90 0 99 -27 15 -43 26
-58 41 -58 20 0 22 29 6 67 -8 18 -24 60 -36 93 -61 171 -89 230 -110 233 -15
3 -24 -4 -32 -25z m52 -95 c6 -23 22 -64 35 -92 13 -27 24 -50 24 -51 0 0 -34
-1 -75 0 -41 0 -75 2 -75 4 0 14 66 181 72 181 4 0 12 -19 19 -42z"/>
<path d="M892 1488 c3 -22 7 -23 101 -22 53 0 97 -1 97 -2 0 -2 -46 -72 -102
-156 -56 -84 -102 -162 -102 -173 -1 -19 6 -20 127 -23 132 -3 162 4 150 35
-5 12 -24 14 -107 13 -128 -3 -123 -4 -99 23 11 12 53 74 93 137 39 63 81 127
91 143 11 15 17 32 14 37 -4 6 -62 10 -136 10 -129 0 -130 0 -127 -22z"/>
<path d="M666 1324 c-3 -9 -4 -20 0 -25 3 -5 61 -9 130 -9 124 0 125 0 122 23
-3 21 -7 22 -124 25 -105 2 -123 0 -128 -14z"/>
</g>
</svg>
