<?xml version="1.0" standalone="no"?> <!DOCTYPE svg PUBLIC "-//W3C//DTD SVG 20010904//EN" "http://www.w3.org/TR/2001/REC-SVG-20010904/DTD/svg10.dtd"> <svg version="1.0" xmlns="http://www.w3.org/2000/svg" width="200.000000pt" height="176.000000pt" viewBox="0 0 200.000000 176.000000" preserveAspectRatio="xMidYMid meet"> <g transform="translate(0.000000,176.000000) scale(0.100000,-0.100000)" fill="#1f1fff" stroke="none"> <path d="M975 1654 c-44 -22 -54 -35 -68 -84 -27 -95 37 -180 136 -180 29 0 50 6 64 20 21 19 22 19 28 1 3 -10 16 -28 29 -40 20 -19 28 -21 45 -12 12 7 21 18 21 26 0 27 25 17 120 -47 71 -48 120 -100 165 -177 34 -58 58 -75 68 -48 5 14 -32 83 -81 149 -39 51 -129 121 -210 162 -54 27 -92 28 -92 1 0 -9 -6 -12 -15 -9 -8 4 -15 10 -15 15 0 12 -52 93 -62 97 -18 8 -6 32 15 32 12 0 40 7 62 15 55 20 75 19 75 -4 0 -22 14 -34 58 -49 103 -35 269 -187 331 -303 65 -124 75 -169 76 -329 0 -150 -14 -220 -61 -312 -47 -92 -147 -208 -220 -254 -16 -10 -31 -21 -34 -24 -8 -10 -82 -51 -85 -48 -5 4 -34 92 -32 93 109 59 181 123 242 215 75 113 89 162 89 321 1 102 -2 140 -13 153 -24 29 -40 3 -29 -47 14 -59 4 -225 -16 -262 -9 -16 -16 -36 -16 -44 0 -22 -71 -131 -114 -176 -44 -45 -123 -103 -168 -123 -27 -11 -38 -45 -19 -56 5 -3 14 -25 20 -48 6 -24 18 -52 26 -63 16 -20 17 -19 93 19 59 31 99 62 172 135 134 135 191 253 211 434 25 217 -46 434 -192 585 -80 84 -116 111 -205 156 -64 32 -71 38 -67 61 7 35 -16 41 -90 22 -58 -14 -63 -14 -78 4 -34 39 -111 51 -164 23z m103 -30 c12 -4 22 -12 22 -19 0 -8 -10 -15 -22 -17 -16 -2 -24 -11 -26 -28 -3 -23 4 -36 49 -88 12 -15 12 -15 -16 -29 -33 -17 -85 -7 -113 21 -40 39 -37 99 6 137 32 29 56 34 100 23z"/> <path d="M970 1536 c0 -2 8 -10 18 -17 15 -13 16 -12 3 4 -13 16 -21 21 -21 13z"/> <path d="M693 1538 c-94 -52 -97 -54 -90 -72 9 -24 35 -20 76 13 20 15 46 31 58 35 18 6 22 2 28 -23 4 -17 11 -33 16 -36 14 -9 11 -35 -4 -35 -14 0 -79 -44 -137 -94 -99 -83 -176 -237 -194 -388 -14 -110 27 -275 91 -373 61 -92 196 -200 304 -243 5 -2 20 8 33 23 l24 26 7 -22 c4 -13 23 -44 41 -71 19 -26 34 -52 34 -56 0 -5 -26 -14 -57 -20 -32 -6 -69 -14 -82 -18 -20 -6 -23 -4 -18 8 7 18 -17 42 -52 53 -58 18 -174 100 -238 169 -81 87 -136 185 -164 293 -30 114 -24 296 14 405 32 93 96 194 172 271 32 32 54 61 50 65 -3 4 -12 -1 -20 -11 -8 -11 -19 -15 -30 -11 -13 5 -28 -5 -57 -37 -116 -129 -183 -284 -194 -452 -6 -90 8 -239 24 -261 5 -6 14 -29 20 -51 21 -72 97 -188 174 -263 67 -67 173 -140 226 -157 14 -4 22 -16 24 -38 3 -31 4 -32 47 -30 25 1 58 7 73 14 26 11 32 9 56 -14 50 -48 134 -48 184 -2 61 57 59 158 -5 216 -27 25 -40 29 -86 29 -38 0 -61 -5 -74 -17 -15 -14 -21 -15 -25 -5 -2 7 -14 25 -26 39 -26 30 -54 26 -63 -7 -6 -24 -9 -24 -53 0 -19 10 -45 23 -57 29 -50 23 -162 147 -191 212 -52 111 -62 154 -62 252 0 98 22 187 69 277 32 61 156 180 225 215 54 27 68 48 47 71 -5 5 -16 32 -25 61 -14 42 -31 63 -50 63 -2 0 -30 -15 -63 -32z m396 -1215 c61 -36 62 -131 0 -165 -38 -22 -61 -23 -99 -3 -28 15 -39 26 -22 24 61 -10 77 29 36 91 -27 41 -28 43 -9 56 25 19 57 18 94 -3z"/> <path d="M1190 1515 c-7 -9 -10 -18 -6 -22 3 -3 6 -1 6 6 0 7 4 10 8 7 5 -3 9 1 9 9 0 19 -2 19 -17 0z"/> <path d="M1435 1400 c-3 -6 1 -7 9 -4 18 7 21 14 7 14 -6 0 -13 -4 -16 -10z"/> <path d="M939 1280 c-59 -11 -110 -27 -132 -41 -67 -44 -67 -46 -67 -357 l0 -280 26 -32 c31 -36 80 -64 100 -56 23 9 16 36 -13 47 -56 21 -73 47 -73 111 l0 58 40 -25 c55 -35 135 -48 255 -42 95 4 195 30 195 49 0 4 7 8 15 8 25 0 18 -104 -9 -128 -43 -39 -130 -62 -236 -62 -93 0 -100 -1 -100 -20 0 -27 35 -34 135 -27 108 8 191 37 233 82 l32 35 0 281 c0 320 0 320 -79 362 -25 14 -77 30 -116 36 -38 7 -79 14 -90 16 -11 2 -63 -5 -116 -15z m286 -68 c22 -11 49 -30 59 -41 19 -21 19 -22 -3 -45 -42 -44 -121 -66 -241 -66 -120 0 -199 22 -241 66 -22 23 -22 24 -3 45 19 21 79 53 119 63 11 3 76 3 145 2 102 -3 132 -7 165 -24z m-394 -163 c60 -30 191 -44 294 -31 83 11 158 40 168 64 3 7 5 -18 4 -56 -2 -61 -5 -71 -27 -87 -81 -60 -263 -78 -382 -38 -92 31 -105 48 -110 144 -4 58 -2 72 4 52 6 -17 25 -35 49 -48z m-26 -159 c4 -6 23 -18 43 -27 54 -25 330 -25 384 0 20 9 39 21 43 27 14 23 25 7 25 -39 0 -60 -33 -106 -83 -116 -17 -4 -38 -12 -45 -18 -18 -15 -246 -15 -264 0 -7 6 -28 14 -46 18 -53 11 -82 50 -82 112 0 49 10 67 25 43z"/> <path d="M1591 1091 c-7 -5 -11 -15 -9 -22 3 -10 8 -7 17 9 13 24 12 26 -8 13z"/> <path d="M1686 797 c3 -10 9 -15 12 -12 3 3 0 11 -7 18 -10 9 -11 8 -5 -6z"/> <path d="M1662 690 c0 -14 2 -19 5 -12 2 6 2 18 0 25 -3 6 -5 1 -5 -13z"/> <path d="M1243 645 c0 -8 4 -12 9 -9 5 3 6 10 3 15 -9 13 -12 11 -12 -6z"/> <path d="M1221 604 c0 -11 3 -14 6 -6 3 7 2 16 -1 19 -3 4 -6 -2 -5 -13z"/> <path d="M1128 423 c7 -3 16 -2 19 1 4 3 -2 6 -13 5 -11 0 -14 -3 -6 -6z"/> <path d="M1485 420 c-3 -6 1 -7 9 -4 18 7 21 14 7 14 -6 0 -13 -4 -16 -10z"/> <path d="M1435 380 c-3 -5 -1 -10 4 -10 6 0 11 5 11 10 0 6 -2 10 -4 10 -3 0 -8 -4 -11 -10z"/> <path d="M1398 203 c7 -3 16 -2 19 1 4 3 -2 6 -13 5 -11 0 -14 -3 -6 -6z"/> </g> </svg>