<?xml version="1.0" standalone="no"?>
<!DOCTYPE svg PUBLIC "-//W3C//DTD SVG 20010904//EN"
 "http://www.w3.org/TR/2001/REC-SVG-20010904/DTD/svg10.dtd">
<svg version="1.0" xmlns="http://www.w3.org/2000/svg"
 width="176.000000pt" height="174.000000pt" viewBox="0 0 176.000000 174.000000"
 preserveAspectRatio="xMidYMid meet">
<g transform="translate(0.000000,174.000000) scale(0.100000,-0.100000)"
fill="#00a4eb" stroke="none">
<path d="M186 1606 l-36 -33 0 -106 c0 -88 3 -106 16 -111 9 -4 19 -4 22 -1 3
3 6 50 6 104 1 68 5 103 15 114 12 16 72 17 673 17 435 0 666 -4 679 -10 18
-10 19 -24 19 -274 0 -199 -3 -266 -12 -274 -8 -6 -122 -11 -303 -13 l-290 -3
-39 27 c-21 15 -42 27 -46 27 -4 0 -25 -12 -46 -27 l-39 -27 -290 2 c-354 3
-328 -10 -324 159 2 61 0 115 -3 119 -4 3 -14 4 -23 0 -14 -5 -16 -24 -13
-141 4 -193 -18 -179 303 -183 233 -3 295 -10 231 -26 -13 -3 -72 -34 -130
-67 l-106 -62 2 -176 c3 -149 5 -176 18 -176 10 0 16 12 18 32 l3 31 85 -50
84 -51 0 -93 c0 -52 -2 -94 -4 -94 -3 0 -24 13 -48 29 -24 16 -60 37 -80 47
-32 15 -38 22 -38 50 0 36 -9 47 -29 35 -8 -5 -11 -24 -9 -51 3 -48 4 -49 168
-141 41 -23 116 -66 167 -95 51 -30 96 -54 101 -54 5 0 92 48 193 107 101 58
197 113 212 122 15 9 30 25 33 36 2 11 3 126 2 255 l-3 234 -42 28 c-41 28
-73 29 -73 2 0 -8 12 -19 27 -25 31 -12 27 -16 -52 -59 -33 -18 -67 -37 -75
-42 -11 -7 -38 4 -93 36 -43 24 -81 47 -84 50 -3 3 7 10 23 16 16 6 53 28 83
47 44 29 57 34 70 24 30 -21 43 -24 52 -10 5 8 8 18 6 22 -3 10 -39 32 -82 49
-25 11 8 14 225 18 140 3 262 9 271 13 8 4 23 21 32 36 15 25 17 62 17 283 0
280 -3 292 -60 320 -32 17 -86 18 -692 18 l-657 0 -35 -34z m753 -616 c24 -16
59 -35 77 -42 19 -7 34 -17 34 -23 -1 -5 -26 -23 -58 -38 -31 -15 -68 -35 -82
-44 -24 -15 -28 -14 -63 10 -21 14 -56 34 -77 44 -38 17 -54 43 -27 43 6 1 41
18 77 40 36 22 67 39 70 39 3 1 25 -13 49 -29z m-178 -137 c92 -53 93 -46 -18
-109 l-63 -35 -75 42 c-41 22 -77 44 -80 49 -3 5 135 96 153 99 1 1 39 -20 83
-46z m191 -111 c35 -21 71 -41 81 -45 24 -9 21 -24 -5 -31 -13 -3 -47 -21 -76
-41 -30 -19 -59 -35 -65 -34 -7 0 -32 14 -57 29 -25 16 -61 36 -80 45 l-35 16
85 49 c47 27 86 50 87 50 2 0 31 -17 65 -38z m-362 -31 c14 -9 34 -21 45 -27
17 -10 20 -23 23 -108 1 -53 1 -96 -2 -96 -3 0 -24 13 -48 29 -24 16 -60 37
-80 47 l-38 18 0 99 0 99 38 -23 c20 -12 48 -30 62 -38z m693 -44 c-1 -90 -2
-92 -30 -107 -15 -9 -50 -30 -78 -47 -27 -17 -52 -30 -55 -28 -3 2 -4 45 -2
97 l3 93 69 38 c38 21 72 42 76 48 13 22 18 -5 17 -94z m-548 -37 c3 -5 35
-26 70 -45 l64 -36 0 -95 c0 -53 -4 -94 -8 -92 -4 2 -42 23 -84 48 l-77 45 0
93 c0 73 3 92 14 92 8 0 18 -4 21 -10z m340 -83 l0 -92 -79 -47 c-43 -26 -81
-46 -85 -44 -3 2 -4 45 -1 96 l5 91 70 44 c39 24 75 44 80 44 6 1 10 -36 10
-92z m211 -49 c-3 -13 -6 -55 -6 -93 l0 -71 -62 -37 c-35 -21 -71 -43 -80 -50
-9 -6 -18 -9 -20 -7 -8 12 5 200 13 200 5 0 38 18 72 40 72 46 92 50 83 18z
m-551 -108 c3 -5 35 -26 70 -46 l65 -36 0 -94 c0 -52 -3 -94 -6 -94 -4 0 -31
16 -60 35 -29 19 -57 35 -62 35 -6 0 -18 7 -26 16 -22 22 -23 194 -2 194 8 0
18 -4 21 -10z m339 -82 l-2 -93 -33 -21 c-19 -11 -55 -33 -81 -48 l-48 -28 0
95 0 94 73 46 c39 25 77 46 82 46 6 1 9 -35 9 -91z"/>
<path d="M425 1490 c-54 -12 -92 -38 -125 -87 -28 -43 -31 -54 -28 -108 7
-108 79 -175 188 -175 96 0 155 46 180 140 35 129 -85 257 -215 230z m94 -55
c54 -27 81 -71 81 -128 0 -87 -57 -147 -138 -147 -88 0 -142 54 -142 141 0 38
6 62 23 86 37 55 119 78 176 48z"/>
<path d="M707 1493 c-10 -9 -9 -373 1 -373 4 -1 39 -2 77 -2 63 -2 70 0 70 18
0 16 -8 19 -57 22 l-58 3 0 169 c0 135 -3 170 -13 170 -8 0 -17 -3 -20 -7z"/>
<path d="M1037 1460 c-19 -46 -35 -87 -72 -185 -14 -38 -33 -85 -41 -104 -13
-30 -13 -36 -1 -49 20 -19 31 -11 47 37 l13 41 83 -1 84 -1 19 -44 c20 -45 37
-56 47 -29 8 19 -114 346 -134 363 -23 18 -27 16 -45 -28z m69 -130 c16 -41
29 -79 29 -84 0 -9 -125 -9 -134 0 -2 2 8 32 22 66 15 35 27 70 27 79 0 20 11
32 20 22 4 -5 20 -42 36 -83z"/>
<path d="M1280 1492 c-6 -2 -10 -70 -10 -187 0 -176 1 -183 21 -188 27 -7 32
10 27 83 l-4 60 48 0 c56 0 97 18 127 56 38 48 17 130 -40 159 -28 15 -141 26
-169 17z m159 -68 c28 -35 26 -69 -4 -100 -21 -21 -33 -25 -72 -22 l-47 3 2
70 c0 39 1 71 2 73 0 1 22 2 49 2 42 0 53 -4 70 -26z"/>
</g>
</svg>
