<?xml version="1.0" standalone="no"?>
<!DOCTYPE svg PUBLIC "-//W3C//DTD SVG 20010904//EN"
 "http://www.w3.org/TR/2001/REC-SVG-20010904/DTD/svg10.dtd">
<svg version="1.0" xmlns="http://www.w3.org/2000/svg"
 width="196.000000pt" height="196.000000pt" viewBox="0 0 196.000000 196.000000"
 preserveAspectRatio="xMidYMid meet">
<g transform="translate(0.000000,196.000000) scale(0.100000,-0.100000)"
fill="#ffffff" stroke="none">
<path d="M965 1830 c-11 -5 -81 -27 -155 -50 -74 -23 -144 -45 -155 -50 -11
-5 -67 -23 -125 -40 -58 -17 -114 -35 -125 -40 -11 -4 -62 -21 -113 -37 l-92
-28 2 -99 3 -99 80 -28 c48 -17 81 -34 83 -43 2 -10 -4 -16 -17 -16 -18 0 -66
-18 -113 -41 -10 -5 -25 -9 -33 -9 -12 0 -15 -17 -15 -99 l0 -99 38 -12 c20
-6 46 -15 57 -20 11 -5 33 -13 49 -17 35 -11 45 -31 19 -39 -21 -7 -73 -26
-121 -46 l-33 -13 3 -99 3 -99 65 -23 c36 -13 73 -23 83 -24 28 0 20 -29 -10
-36 -16 -4 -32 -10 -38 -14 -5 -4 -34 -15 -62 -25 l-53 -19 0 -91 c0 -91 8
-115 38 -115 8 0 28 -6 45 -14 18 -8 55 -22 82 -31 28 -9 59 -21 70 -25 11 -5
61 -23 110 -40 50 -18 99 -36 110 -40 11 -5 43 -16 70 -25 28 -10 59 -21 70
-25 11 -5 61 -23 110 -40 50 -18 100 -37 112 -42 16 -8 30 -7 55 5 18 8 53 22
78 30 25 8 59 21 75 27 17 7 39 16 50 20 11 4 38 14 60 23 22 8 60 23 85 32
25 10 54 21 65 25 55 21 113 44 142 56 17 8 36 14 42 14 6 0 19 4 29 9 32 17
87 39 107 43 18 3 20 12 23 103 l3 100 -39 17 c-21 9 -62 24 -91 34 -28 9 -50
21 -48 27 2 6 23 17 48 23 24 7 62 19 84 27 l40 15 3 99 3 98 -33 13 c-18 7
-48 20 -66 28 -18 8 -39 14 -47 14 -8 0 -15 9 -15 20 0 11 6 20 13 20 6 0 42
10 80 22 l67 22 0 100 0 101 -40 18 c-22 9 -58 22 -80 29 -49 16 -49 38 0 51
19 5 40 12 45 17 6 4 25 11 43 15 l32 7 0 102 0 102 -162 54 c-90 30 -170 57
-178 61 -8 4 -62 22 -120 39 -58 18 -114 36 -125 40 -11 5 -59 20 -106 34 -88
27 -129 31 -164 16z m97 -50 c13 -5 70 -23 128 -40 58 -18 114 -35 125 -40 18
-7 358 -116 394 -126 20 -6 -6 -34 -31 -34 -18 0 -150 -49 -190 -71 -10 -5
-23 -9 -29 -9 -6 0 -25 -6 -42 -14 -29 -12 -87 -35 -142 -56 -50 -19 -112 -43
-130 -51 -108 -45 -118 -46 -161 -24 -16 8 -36 15 -44 15 -9 0 -20 4 -25 8 -6
4 -35 16 -65 26 -30 10 -64 21 -75 26 -11 5 -60 23 -110 40 -49 18 -99 36
-110 40 -11 5 -42 16 -70 25 -27 10 -60 22 -72 28 -12 5 -39 13 -60 16 -45 7
-61 41 -20 41 22 0 190 49 242 70 11 4 101 34 200 65 99 31 189 60 200 65 27
12 59 12 87 0z m-767 -269 c43 -20 64 -27 120 -46 28 -10 59 -21 70 -25 11 -4
43 -16 70 -25 28 -9 64 -23 82 -31 17 -8 37 -14 45 -14 8 0 18 -4 24 -8 5 -4
34 -16 64 -26 30 -10 69 -24 85 -31 17 -7 54 -21 83 -30 58 -19 72 -36 72 -89
0 -37 -8 -42 -38 -27 -25 13 -57 25 -157 61 -49 18 -99 36 -110 40 -11 5 -42
16 -70 25 -27 9 -58 21 -67 26 -10 5 -23 9 -29 9 -6 0 -25 7 -42 15 -18 8 -79
30 -137 49 l-105 35 -8 43 c-7 44 -3 73 11 66 4 -2 21 -10 37 -17z m1485 -35
c0 -54 0 -55 -37 -66 -21 -6 -51 -18 -68 -25 -16 -7 -133 -52 -260 -100 -241
-92 -288 -110 -319 -127 -27 -14 -38 2 -34 53 l3 43 65 24 c95 35 167 63 225
87 17 7 64 25 105 40 41 16 79 32 85 37 5 4 15 8 23 8 8 0 29 7 48 15 19 8 49
21 67 28 17 8 43 19 57 25 39 17 40 15 40 -42z m-1283 -197 c49 -20 66 -26
158 -59 50 -17 99 -35 110 -40 11 -4 43 -16 70 -25 28 -9 64 -23 82 -31 17 -8
37 -14 45 -14 8 0 18 -4 24 -10 24 -24 93 -6 289 75 17 7 50 20 75 30 25 10
59 24 77 31 17 8 35 14 40 14 5 0 29 10 53 21 43 21 46 21 90 4 25 -10 62 -22
83 -28 20 -6 37 -15 37 -19 0 -4 -1 -8 -3 -8 -6 0 -198 -70 -228 -83 -19 -8
-132 -52 -252 -97 -178 -67 -223 -80 -240 -72 -12 5 -62 24 -112 42 -49 17
-99 35 -110 40 -11 4 -42 15 -70 25 -27 9 -59 20 -70 25 -11 4 -91 34 -177 66
-139 51 -185 74 -147 74 6 0 25 6 42 14 98 42 94 41 134 25z m-221 -97 c5 -5
29 -16 54 -24 82 -29 275 -99 295 -108 11 -5 47 -18 80 -29 34 -11 74 -25 90
-32 56 -22 70 -27 143 -54 l72 -27 0 -49 c0 -50 -6 -56 -38 -40 -27 14 -60 26
-157 61 -49 17 -99 35 -110 40 -11 5 -65 25 -120 44 -119 40 -212 74 -240 86
-11 5 -37 14 -57 20 -21 6 -41 17 -45 23 -8 13 -13 78 -6 90 6 9 27 9 39 -1z
m1502 -48 c2 -34 -1 -42 -20 -51 -30 -15 -84 -37 -128 -53 -19 -7 -48 -19 -65
-25 -16 -7 -70 -27 -120 -45 -49 -19 -94 -37 -99 -42 -6 -4 -16 -8 -24 -8 -8
0 -28 -6 -45 -14 -18 -8 -54 -22 -82 -32 -27 -9 -54 -21 -59 -26 -6 -4 -18 -8
-27 -8 -10 0 -19 -6 -22 -12 -10 -28 -28 10 -25 53 3 40 6 45 38 56 19 7 172
66 340 132 168 65 312 118 320 117 10 -1 16 -15 18 -42z m-1287 -195 c19 -6
43 -14 54 -19 11 -5 47 -18 80 -29 69 -23 163 -57 285 -102 126 -47 124 -47
240 -1 14 5 45 18 70 27 25 10 54 21 65 26 11 4 80 31 153 60 l133 52 62 -27
c34 -14 68 -26 75 -26 30 0 2 -26 -44 -41 -27 -8 -58 -19 -69 -23 -56 -22
-103 -40 -132 -52 -17 -8 -36 -14 -42 -14 -6 0 -19 -4 -29 -9 -34 -19 -90 -41
-101 -41 -6 0 -19 -4 -29 -9 -9 -6 -57 -24 -107 -42 -49 -18 -94 -36 -99 -41
-13 -11 -49 -10 -62 1 -5 5 -36 18 -69 29 -34 11 -74 26 -90 33 -46 18 -63 24
-160 59 -49 18 -99 36 -110 40 -11 4 -51 19 -90 33 -38 13 -91 32 -117 42 -44
15 -64 35 -37 35 6 0 25 6 42 14 98 42 84 39 128 25z m-215 -97 c5 -5 32 -17
59 -26 28 -10 59 -21 70 -26 11 -4 61 -22 110 -40 50 -17 122 -43 160 -57 39
-13 86 -31 105 -38 19 -7 69 -25 110 -40 129 -45 120 -38 120 -95 0 -27 -4
-50 -8 -50 -5 0 -27 9 -50 20 -22 11 -45 20 -51 20 -5 0 -56 17 -113 39 -56
21 -143 53 -193 71 -49 18 -99 36 -110 40 -11 4 -60 22 -110 40 -49 18 -99 36
-111 40 -15 6 -23 20 -27 51 -3 24 -3 47 -1 51 7 10 27 10 40 0z m1496 -43
c-5 -53 -14 -66 -55 -75 -17 -3 -38 -11 -47 -15 -8 -5 -127 -52 -265 -104
-137 -53 -268 -104 -289 -116 -48 -24 -58 -16 -54 45 l3 48 60 19 c33 11 74
27 92 35 17 7 36 14 42 14 6 0 19 4 29 9 15 8 41 18 127 51 55 21 113 44 142
56 17 8 35 14 40 14 5 0 27 9 49 19 22 11 52 23 67 26 15 4 30 11 33 17 14 23
29 -2 26 -43z m-1215 -223 c3 -3 13 -6 21 -6 8 0 28 -6 45 -14 18 -8 55 -22
82 -31 28 -9 59 -21 70 -25 11 -4 38 -15 60 -23 174 -67 217 -78 230 -57 3 6
13 10 22 10 8 0 29 6 46 14 18 8 55 22 82 32 28 9 54 21 60 26 5 4 15 8 23 8
13 0 66 21 104 41 10 5 23 9 29 9 11 0 67 22 101 41 27 14 50 11 96 -11 22
-11 47 -20 55 -20 8 0 19 -6 25 -13 9 -10 0 -17 -41 -31 -57 -19 -73 -26 -129
-50 -20 -9 -43 -16 -51 -16 -9 0 -18 -4 -21 -9 -3 -5 -16 -11 -28 -14 -23 -5
-147 -50 -183 -66 -11 -5 -42 -16 -70 -26 -27 -9 -59 -20 -70 -25 -84 -34
-100 -34 -180 0 -11 5 -42 16 -70 25 -27 10 -59 21 -70 25 -11 4 -60 22 -110
40 -178 63 -230 82 -260 95 -16 7 -51 18 -77 26 -37 10 -45 16 -36 26 6 7 17
13 24 13 8 0 22 4 32 9 70 35 83 38 134 20 26 -9 51 -19 55 -23z m-279 -75 c9
-5 40 -17 67 -26 28 -9 59 -20 70 -25 11 -4 43 -15 70 -25 28 -9 59 -20 70
-25 11 -4 61 -22 110 -40 202 -72 311 -112 325 -119 9 -5 16 -26 18 -55 l3
-48 -33 7 c-18 4 -37 11 -43 15 -5 4 -26 12 -45 18 -19 6 -87 29 -150 52 -63
23 -124 44 -135 47 -11 3 -24 9 -30 13 -5 5 -26 12 -45 18 -19 6 -87 29 -150
52 -63 23 -122 44 -131 47 -13 4 -16 16 -14 51 1 26 3 48 4 50 2 5 22 2 39 -7z
m1502 -37 c0 -44 -1 -45 -47 -65 -61 -26 -78 -33 -133 -54 -25 -10 -58 -23
-75 -30 -16 -7 -75 -29 -130 -50 -162 -60 -258 -97 -292 -112 -17 -7 -34 -13
-37 -13 -3 0 -6 25 -6 55 0 47 3 55 19 55 16 0 46 10 116 39 11 5 40 17 65 26
25 10 59 24 77 31 17 8 37 14 45 14 8 0 18 4 23 8 6 5 80 35 165 67 85 32 159
62 165 66 5 5 17 9 27 9 15 0 18 -8 18 -46z"/>
</g>
</svg>
