<?xml version="1.0" standalone="no"?> <!DOCTYPE svg PUBLIC "-//W3C//DTD SVG 20010904//EN" "http://www.w3.org/TR/2001/REC-SVG-20010904/DTD/svg10.dtd"> <svg version="1.0" xmlns="http://www.w3.org/2000/svg" width="188.000000pt" height="174.000000pt" viewBox="0 0 188.000000 174.000000" preserveAspectRatio="xMidYMid meet"> <g transform="translate(0.000000,174.000000) scale(0.100000,-0.100000)" fill="#ad0000" stroke="none"> <path d="M343 1610 c-3 -11 -12 -20 -20 -20 -8 0 -11 -5 -8 -10 4 -7 11 -7 18 -2 7 5 45 10 85 11 72 2 106 -9 155 -48 23 -19 22 -73 -2 -95 -26 -24 -113 -55 -142 -52 -55 7 -110 28 -134 52 -28 28 -33 65 -10 84 20 17 19 36 -2 45 -27 10 -53 -29 -53 -80 0 -82 77 -139 192 -140 l67 0 22 -40 c12 -22 32 -54 45 -72 13 -17 24 -34 24 -36 0 -2 -33 -2 -73 1 -114 7 -107 31 -107 -363 0 -325 1 -335 20 -345 13 -7 105 -10 263 -9 l242 1 2 -53 c1 -32 -3 -57 -10 -61 -56 -35 -176 -137 -176 -150 -1 -9 10 -25 24 -35 14 -10 59 -44 100 -76 41 -31 78 -57 82 -57 15 0 208 151 211 165 3 12 -98 99 -161 139 -26 16 -28 21 -25 72 l3 55 253 2 c212 2 254 4 262 17 15 24 13 417 -2 427 -35 21 -36 14 -38 -190 0 -111 -2 -203 -4 -204 -2 -2 -228 -4 -502 -4 l-499 0 2 311 2 310 496 0 c272 0 498 0 503 0 4 0 5 -36 3 -81 -3 -80 -3 -81 20 -77 23 3 24 7 27 89 4 115 -4 123 -105 117 -41 -3 -72 -2 -71 1 2 3 22 38 46 77 l43 71 43 -4 c50 -6 131 17 170 48 33 26 51 90 37 130 -12 35 -24 48 -74 77 -52 30 -179 31 -236 2 -53 -27 -91 -74 -91 -113 0 -41 43 -105 75 -113 24 -6 35 -38 16 -46 -5 -1 -24 -32 -44 -66 l-35 -64 -151 -1 -152 -2 3 75 3 74 38 8 c117 24 175 121 117 195 -39 51 -95 73 -183 73 -91 0 -141 -20 -181 -73 -26 -34 -36 -97 -16 -97 6 0 10 -6 10 -13 0 -29 86 -86 139 -91 26 -3 26 -5 26 -77 0 -41 -3 -73 -7 -71 -5 1 -72 2 -151 2 l-143 0 -24 43 c-12 23 -33 56 -46 74 -28 37 -30 53 -8 53 9 0 31 15 50 34 29 29 34 41 34 79 0 88 -72 137 -203 137 -70 0 -79 -2 -84 -20z m700 -37 c37 -21 66 -52 67 -71 1 -37 -35 -72 -95 -92 -57 -19 -64 -19 -120 -5 -166 42 -125 183 53 184 43 1 74 -5 95 -16z m517 -3 c99 -51 80 -131 -39 -166 -52 -15 -60 -15 -111 1 -58 18 -110 58 -110 85 0 79 163 129 260 80z m-572 -1252 c73 -61 96 -78 105 -78 19 0 -1 -20 -71 -74 l-73 -57 -64 51 c-34 27 -68 50 -74 50 -27 0 -5 29 62 82 40 31 73 57 74 57 0 1 19 -14 41 -31z"/> <path d="M822 1094 c-21 -14 -22 -22 -22 -145 0 -122 1 -129 20 -129 19 0 20 7 20 120 0 140 -7 133 125 128 78 -3 80 -4 80 -28 0 -24 -2 -25 -65 -25 -36 0 -71 -4 -78 -8 -8 -6 -12 -27 -10 -65 l3 -57 70 -3 c72 -3 86 -11 78 -43 -4 -15 -17 -19 -77 -21 l-71 -3 0 -65 0 -65 73 -1 c79 0 104 -12 82 -39 -11 -13 -31 -15 -109 -13 l-96 3 -5 65 c-4 49 -9 65 -20 65 -12 0 -16 -16 -18 -70 -4 -98 5 -105 149 -105 97 0 110 2 128 21 22 24 19 73 -7 102 -13 15 -28 18 -74 15 -57 -3 -58 -3 -58 25 0 26 2 27 54 27 47 0 57 4 76 27 15 19 19 35 15 53 -12 46 -33 60 -92 60 -51 0 -53 1 -53 28 0 26 1 27 49 24 57 -4 88 9 101 44 10 26 -2 73 -23 86 -7 4 -59 8 -117 8 -80 0 -111 -4 -128 -16z"/> <path d="M1413 1060 c0 -25 2 -35 4 -22 2 12 2 32 0 45 -2 12 -4 2 -4 -23z"/> <path d="M1106 963 c-6 -14 -5 -15 5 -6 7 7 10 15 7 18 -3 3 -9 -2 -12 -12z"/> <path d="M1440 976 c0 -2 7 -6 15 -10 8 -3 15 -1 15 4 0 6 -7 10 -15 10 -8 0 -15 -2 -15 -4z"/> <path d="M1411 844 c0 -11 3 -14 6 -6 3 7 2 16 -1 19 -3 4 -6 -2 -5 -13z"/> <path d="M825 790 c3 -5 8 -10 11 -10 2 0 4 5 4 10 0 6 -5 10 -11 10 -5 0 -7 -4 -4 -10z"/> <path d="M1413 725 c0 -33 2 -45 4 -27 2 18 2 45 0 60 -2 15 -4 0 -4 -33z"/> </g> </svg>