<?xml version="1.0" standalone="no"?>
<!DOCTYPE svg PUBLIC "-//W3C//DTD SVG 20010904//EN"
 "http://www.w3.org/TR/2001/REC-SVG-20010904/DTD/svg10.dtd">
<svg version="1.0" xmlns="http://www.w3.org/2000/svg"
 width="108.000000pt" height="102.000000pt" viewBox="0 0 108.000000 102.000000"
 preserveAspectRatio="xMidYMid meet">
<g transform="translate(0.000000,102.000000) scale(0.100000,-0.100000)"
fill="#8a0000" stroke="none">
<path d="M306 859 c-102 -24 -185 -125 -194 -237 -6 -73 17 -67 33 9 21 104
76 167 169 194 52 15 74 14 152 -10 14 -5 23 -2 27 9 5 12 -6 19 -45 31 -57
17 -84 17 -142 4z"/>
<path d="M520 800 c0 -5 16 -30 35 -56 19 -25 35 -52 35 -60 0 -14 21 -19 33
-8 14 14 -67 134 -90 134 -7 0 -13 -4 -13 -10z"/>
<path d="M306 785 c-67 -24 -126 -98 -126 -159 0 -49 -20 -94 -45 -100 -30 -8
-34 -36 -5 -36 28 0 70 47 70 79 0 78 41 151 100 181 82 42 176 10 221 -74 13
-25 30 -46 36 -46 18 0 16 15 -7 59 -46 92 -146 131 -244 96z"/>
<path d="M303 709 c-39 -25 -63 -70 -63 -117 0 -55 -41 -116 -89 -132 -40 -13
-57 -40 -26 -40 31 0 96 41 115 73 11 17 22 52 25 77 14 112 85 160 166 113
25 -15 35 -31 53 -86 7 -21 26 -14 26 10 0 30 -31 78 -63 101 -42 28 -101 29
-144 1z"/>
<path d="M855 719 c-5 -7 -9 -27 -9 -44 -1 -45 -31 -41 -31 5 0 42 -29 51 -31
10 -2 -46 -4 -52 -16 -47 -7 2 -13 19 -13 38 0 24 -5 34 -15 34 -10 0 -15 -11
-15 -35 0 -24 -5 -35 -15 -35 -10 0 -15 11 -16 35 0 24 -5 35 -15 35 -9 0 -14
-10 -14 -30 0 -22 -7 -33 -27 -43 -16 -7 -28 -20 -28 -28 0 -15 -9 -17 -47
-14 -17 1 -23 -4 -23 -20 0 -19 4 -20 35 -14 31 5 35 4 35 -15 0 -17 -6 -21
-36 -21 -24 0 -34 -4 -31 -12 2 -8 16 -12 35 -10 27 3 32 0 32 -17 0 -17 -6
-21 -35 -21 -19 0 -35 -4 -35 -9 0 -13 25 -20 49 -14 16 4 21 1 21 -16 0 -18
-5 -21 -32 -19 -24 2 -33 -1 -33 -12 0 -10 12 -16 33 -18 22 -2 32 -8 32 -20
0 -10 13 -22 30 -29 26 -10 29 -15 24 -41 -4 -18 -1 -32 6 -37 17 -11 24 2 22
39 -2 22 3 36 12 39 17 7 30 -22 20 -46 -8 -22 3 -37 22 -30 10 4 14 16 12 37
-2 22 1 31 12 31 11 0 14 -9 12 -32 -1 -18 2 -33 8 -33 5 0 13 0 18 0 4 0 7
15 7 33 0 22 5 33 18 35 15 3 17 -3 15 -32 -1 -19 1 -38 4 -42 14 -13 29 9 26
39 -3 26 1 32 22 37 16 4 26 14 28 28 3 18 10 22 37 22 19 0 35 6 38 14 8 21
-3 27 -40 20 -29 -5 -33 -4 -33 15 0 19 4 21 34 16 25 -5 35 -3 39 9 5 13 -1
16 -33 16 -34 0 -40 3 -40 20 0 17 6 20 33 18 17 -2 33 0 35 5 6 19 -1 23 -33
19 -31 -4 -35 -1 -35 18 0 20 4 22 34 16 19 -4 37 -3 40 2 10 17 -12 34 -40
30 -24 -2 -30 1 -32 20 -3 19 -18 27 -44 23 -9 -1 -11 13 -9 41 1 10 -2 25 -7
34 -7 13 -11 14 -17 3z m43 -231 l3 -128 -131 0 c-97 0 -130 3 -131 13 -5 62
-2 212 3 228 7 18 16 19 130 17 l123 -3 3 -127z"/>
<path d="M670 491 c0 -103 -2 -101 100 -101 102 0 100 -2 100 101 l0 89 -100
0 -100 0 0 -89z m165 -1 l0 -65 -65 0 -65 0 -3 54 c-5 80 -2 82 70 79 l63 -3
0 -65z"/>
<path d="M353 659 c-30 -11 -53 -48 -53 -87 0 -77 -58 -150 -141 -177 -27 -9
-49 -20 -49 -25 0 -28 78 -9 134 34 42 31 86 117 86 166 0 72 57 90 87 29 16
-34 -1 -130 -32 -179 -28 -45 -31 -60 -11 -60 8 0 28 28 45 62 26 50 31 73 31
129 0 56 -4 72 -21 88 -26 24 -49 30 -76 20z"/>
<path d="M366 588 c-3 -7 -7 -34 -11 -59 -11 -85 -79 -162 -175 -199 -47 -18
-58 -29 -41 -39 18 -12 105 28 156 72 50 42 95 131 95 186 0 39 -16 65 -24 39z"/>
<path d="M480 502 c0 -46 21 -94 35 -80 13 13 -6 128 -21 128 -10 0 -14 -14
-14 -48z"/>
<path d="M446 411 c-14 -21 91 -111 129 -111 30 0 14 26 -26 44 -23 10 -49 31
-58 47 -16 29 -35 37 -45 20z"/>
<path d="M265 294 c-44 -19 -86 -38 -92 -41 -7 -3 -13 -9 -13 -13 0 -22 24
-18 92 16 41 20 95 38 124 41 46 5 59 1 123 -32 51 -27 75 -35 83 -27 12 12 3
32 -15 32 -7 0 -39 14 -72 30 -81 41 -128 39 -230 -6z"/>
<path d="M345 258 c-73 -25 -150 -70 -138 -81 12 -13 32 -7 80 23 65 42 131
42 197 0 33 -21 52 -28 63 -22 13 8 10 12 -13 29 -70 48 -142 67 -189 51z"/>
<path d="M324 181 c-45 -20 -59 -35 -49 -51 4 -6 23 0 49 15 52 30 61 31 110
4 24 -13 42 -17 48 -11 14 14 -16 39 -60 52 -48 13 -50 13 -98 -9z"/>
</g>
</svg>
