<?xml version="1.0" standalone="no"?>
<!DOCTYPE svg PUBLIC "-//W3C//DTD SVG 20010904//EN"
 "http://www.w3.org/TR/2001/REC-SVG-20010904/DTD/svg10.dtd">
<svg version="1.0" xmlns="http://www.w3.org/2000/svg"
 width="148.000000pt" height="174.000000pt" viewBox="0 0 148.000000 174.000000"
 preserveAspectRatio="xMidYMid meet">
<g transform="translate(0.000000,174.000000) scale(0.100000,-0.100000)"
fill="#ccbb00" stroke="none">
<path d="M630 1635 c-96 -17 -169 -43 -246 -88 -64 -38 -144 -116 -144 -142 0
-28 34 -15 75 29 43 47 154 112 245 142 44 15 84 19 205 19 131 -1 158 -4 214
-24 216 -79 338 -224 329 -391 -4 -78 -43 -166 -96 -217 -42 -41 -141 -108
-174 -118 -13 -4 -27 -11 -33 -15 -20 -15 -169 -40 -240 -40 -190 0 -359 68
-468 190 -72 80 -95 176 -74 308 8 48 7 52 -11 52 -15 0 -23 -13 -36 -58 -20
-73 -20 -98 1 -176 15 -58 15 -67 0 -129 -10 -36 -17 -88 -17 -114 0 -60 32
-194 61 -253 37 -78 116 -175 179 -221 59 -43 60 -44 60 -92 0 -34 4 -49 16
-54 26 -10 35 17 32 92 l-3 70 258 3 257 2 0 -145 0 -145 -261 0 c-258 0 -260
0 -254 20 8 25 -11 51 -31 43 -17 -6 -19 -65 -4 -94 10 -18 24 -19 289 -19
243 0 280 2 292 16 10 12 12 48 10 138 l-2 122 55 38 c102 70 205 217 168 240
-12 7 -26 -6 -52 -49 -22 -39 -148 -175 -161 -175 -4 0 -10 11 -13 25 l-6 25
-133 0 -132 0 2 147 1 148 44 3 c74 4 180 33 255 69 69 34 185 130 195 162 2
8 9 11 16 7 12 -7 11 -190 -3 -263 -7 -39 -6 -43 13 -43 27 0 42 47 49 152 4
57 1 96 -13 148 -17 66 -17 72 -1 123 23 73 21 134 -5 204 -68 178 -218 288
-449 328 -99 18 -158 18 -259 0z m-376 -673 c50 -96 270 -205 436 -214 l45 -3
3 -147 3 -148 -136 0 -135 0 -6 -25 c-3 -14 -9 -25 -13 -25 -19 0 -150 154
-179 211 -45 88 -67 204 -57 303 3 42 11 76 16 76 4 0 15 -12 23 -28z"/>
<path d="M699 1495 c-52 -17 -92 -52 -122 -110 -18 -33 -22 -62 -25 -167 -4
-141 9 -204 55 -259 75 -88 222 -92 299 -7 50 54 58 86 62 230 4 129 2 140
-21 190 -13 29 -34 63 -46 75 -50 52 -129 70 -202 48z m118 -46 c43 -16 80
-57 93 -103 7 -26 10 -93 8 -177 -3 -121 -5 -137 -26 -167 -29 -39 -89 -72
-134 -72 -43 0 -107 37 -129 75 -25 42 -29 326 -6 371 37 71 118 102 194 73z"/>
<path d="M692 1382 c-39 -37 -44 -56 -40 -172 3 -79 6 -95 20 -98 12 -2 33 29
82 127 36 72 66 137 66 145 0 37 -88 35 -128 -2z m78 -16 c0 -2 -11 -24 -25
-47 -14 -24 -25 -51 -25 -60 0 -9 -7 -19 -15 -23 -30 -11 -10 95 22 120 17 13
43 19 43 10z"/>
<path d="M834 1278 c-39 -63 -134 -263 -130 -273 9 -25 72 -29 108 -8 49 28
58 55 58 174 0 85 -3 108 -15 112 -8 4 -17 1 -21 -5z m-12 -199 c-7 -31 -48
-66 -61 -53 -5 4 37 100 54 123 14 20 19 -25 7 -70z"/>
</g>
</svg>
